<svg id="visual" viewBox="0 0 960 540" width="960" height="540" xmlns="http://www.w3.org/2000/svg" xmlns:xlink="http://www.w3.org/1999/xlink" version="1.1"><rect x="0" y="0" width="960" height="540" fill="#2b0743"></rect><path d="M0 83L137 83L137 147L274 147L274 189L411 189L411 82L549 82L549 88L686 88L686 135L823 135L823 152L960 152L960 110L960 541L960 541L823 541L823 541L686 541L686 541L549 541L549 541L411 541L411 541L274 541L274 541L137 541L137 541L0 541Z" fill="#9900ff"></path><path d="M0 236L137 236L137 221L274 221L274 168L411 168L411 253L549 253L549 250L686 250L686 169L823 169L823 195L960 195L960 260L960 541L960 541L823 541L823 541L686 541L686 541L549 541L549 541L411 541L411 541L274 541L274 541L137 541L137 541L0 541Z" fill="#8800e2"></path><path d="M0 251L137 251L137 351L274 351L274 261L411 261L411 246L549 246L549 287L686 287L686 275L823 275L823 283L960 283L960 330L960 541L960 541L823 541L823 541L686 541L686 541L549 541L549 541L411 541L411 541L274 541L274 541L137 541L137 541L0 541Z" fill="#7700c6"></path><path d="M0 409L137 409L137 367L274 367L274 413L411 413L411 329L549 329L549 329L686 329L686 422L823 422L823 408L960 408L960 389L960 541L960 541L823 541L823 541L686 541L686 541L549 541L549 541L411 541L411 541L274 541L274 541L137 541L137 541L0 541Z" fill="#6600ab"></path><path d="M0 409L137 409L137 435L274 435L274 451L411 451L411 476L549 476L549 414L686 414L686 463L823 463L823 460L960 460L960 469L960 541L960 541L823 541L823 541L686 541L686 541L549 541L549 541L411 541L411 541L274 541L274 541L137 541L137 541L0 541Z" fill="#560090"></path></svg>